<?xml version="1.0" standalone="no"?>
<!DOCTYPE svg PUBLIC "-//W3C//DTD SVG 20010904//EN"
 "http://www.w3.org/TR/2001/REC-SVG-20010904/DTD/svg10.dtd">
<svg version="1.0" xmlns="http://www.w3.org/2000/svg"
 width="260.000000pt" height="260.000000pt" viewBox="0 0 260.000000 260.000000"
 preserveAspectRatio="xMidYMid meet">
<metadata>
Created by potrace 1.11, written by Peter Selinger 2001-2013
</metadata>
<g transform="translate(0.000000,260.000000) scale(0.100000,-0.100000)"
fill="#000000" stroke="none">
<path d="M419 2585 c-178 -44 -319 -169 -390 -350 l-24 -60 -2 -845 c-3 -916
-4 -907 52 -1023 52 -111 148 -204 263 -257 107 -49 117 -50 984 -50 857 0
877 1 977 47 46 21 151 95 174 122 73 88 110 160 133 257 21 90 20 1660 -1
1749 -22 97 -59 168 -132 256 -33 39 -140 109 -209 136 l-69 28 -850 2 c-690
1 -861 -1 -906 -12z m1060 -490 c16 -8 34 -28 41 -44 11 -28 16 -30 54 -27 64
5 185 -12 246 -35 157 -58 218 -146 152 -220 -40 -45 -80 -45 -154 -1 -90 53
-139 61 -334 53 -32 -1 -33 -2 -104 -166 -27 -62 -72 -207 -95 -311 -29 -126
-39 -319 -22 -413 20 -108 69 -204 151 -299 60 -69 63 -113 12 -166 -28 -30
-40 -36 -74 -36 -77 0 -119 33 -124 96 -1 16 -17 49 -36 73 -98 130 -143 296
-136 511 1 58 5 119 8 135 3 17 8 48 12 70 11 71 62 258 93 343 17 46 31 85
31 87 0 14 -192 -68 -315 -133 -142 -76 -177 -104 -182 -144 -5 -50 -52 -88
-109 -88 -56 0 -99 24 -119 66 -19 40 -19 54 1 104 33 81 239 214 534 343 41
18 196 70 257 86 35 10 47 19 63 50 37 74 90 97 149 66z"/>
</g>
</svg>
